<svg width="1270" height="900" viewBox="0 0 1270 900" fill="none" xmlns="http://www.w3.org/2000/svg">
<path fill-rule="evenodd" clip-rule="evenodd" d="M1258.44 298.794C1229.59 271.388 1150.11 272.731 1034.65 302.503C905.654 335.77 739.787 402.751 553.077 496.88C819.325 176.141 879.604 -103.102 717.67 -272.965C562.585 -435.65 246.536 -435.693 91.4271 -273.008C-70.5709 -103.093 -10.1791 176.322 256.349 497.284C55.027 397.923 -65.404 372.626 -101.852 422.083C-140.455 474.467 -69.9941 584.312 -24.5501 645.113C101.881 814.313 341.549 1017.29 444.726 963.476C484.354 942.801 499.11 888.593 488.848 802.013C595.733 1038.45 673.492 1124.01 709.339 1124H709.772C719.481 1123.81 727.019 1118.03 731.008 1107.71C752.725 1051.64 673.989 852.581 470.824 620.815C946.38 579.595 1238.86 431.921 1267.72 339.73C1272.72 323.763 1269.42 309.226 1258.44 298.794" fill="#A0C3D2"/>
</svg>
