<svg width="1270" height="900" viewBox="0 0 1270 900" fill="none" xmlns="http://www.w3.org/2000/svg">
<path fill-rule="evenodd" clip-rule="evenodd" d="M1258.44 298.794C1229.59 271.388 1150.11 272.731 1034.65 302.503C905.654 335.77 739.787 402.751 553.077 496.88C819.325 176.141 879.604 -103.102 717.67 -272.965C562.585 -435.65 246.536 -435.693 91.4271 -273.008C-70.5709 -103.093 -10.1791 176.322 256.349 497.284C55.027 397.923 -65.404 372.626 -101.852 422.083C-140.455 474.467 -69.9941 584.312 -24.5501 645.113C101.881 814.313 341.549 1017.29 444.726 963.476C484.354 942.801 499.11 888.593 488.848 802.013C595.733 1038.45 673.492 1124.01 709.339 1124H709.772C719.481 1123.81 727.019 1118.03 731.008 1107.71C752.725 1051.64 673.989 852.581 470.824 620.815C946.38 579.595 1238.86 431.921 1267.72 339.73C1272.72 323.763 1269.42 309.226 1258.44 298.794" fill="#A0C3D2"/>
<path fill-rule="evenodd" clip-rule="evenodd" d="M905.453 615.987C926.958 604.302 943.357 595.234 955.663 588.305C941.761 595.683 924.474 605.146 905.453 615.987ZM1020.94 682.531C999.456 678.119 951.08 670.516 889.274 663.898C960.474 675.316 1001.96 680.769 1020.94 682.531ZM768.853 783.277C769.832 785.348 770.95 785.292 771.377 785.267C778.039 784.908 796.476 763.015 823.329 683.236C823.64 682.317 824.671 681.811 825.633 682.105C826.412 682.343 826.907 683.031 826.907 683.771C826.907 683.948 826.878 684.128 826.819 684.307C799.933 764.191 800.813 779.186 801.49 781.721C804.487 779.58 812.848 765.327 821.197 740.602C830.599 712.759 835.054 685.837 833.419 666.739C833.415 666.69 833.413 666.643 833.413 666.594C833.413 665.692 834.139 664.927 835.098 664.852C836.099 664.768 836.992 665.491 837.074 666.454C840.997 712.293 883.495 771.321 890.954 773.593C891.312 771.543 890.67 757.897 847.322 682.418C847.168 682.15 847.095 681.86 847.096 681.573C847.098 680.956 847.443 680.359 848.05 680.041C848.937 679.575 850.053 679.887 850.537 680.734C869.601 713.93 893.356 738.734 919.232 752.463C940.017 763.493 961.99 767.076 979.53 762.296C995.73 757.879 1005.33 747.151 1004.6 734.297C1003.24 710.564 967.41 679.614 870.95 663.924C870.056 663.779 869.423 663.039 869.425 662.2C869.425 662.102 869.434 662.004 869.452 661.906C869.489 661.691 869.566 661.493 869.674 661.316C866.442 660.998 863.188 660.682 859.898 660.373C858.95 660.282 858.244 659.52 858.244 658.631C858.244 658.573 858.248 658.515 858.253 658.458C858.352 657.495 859.28 656.8 860.259 656.887C908.89 661.489 943.676 653.57 964.292 646.12C991.891 636.144 1006.25 622.867 1010.49 613.766C1012.2 610.094 1013.33 604.923 1008.98 601.144C999.259 592.698 958.244 591.61 866.184 641.096C865.306 641.569 864.184 641.273 863.687 640.429C863.674 640.408 863.663 640.387 863.65 640.365C859.804 642.686 855.934 645.038 852.057 647.417C851.203 647.941 850.07 647.703 849.524 646.89C849.327 646.598 849.232 646.271 849.232 645.949C849.232 645.371 849.531 644.807 850.075 644.473C908.076 608.893 928.312 571.135 925.835 559.726C925.406 557.755 924.361 556.664 922.638 556.394C914.711 555.159 889.046 570.274 848.644 636.311C848.138 637.147 847.016 637.429 846.136 636.939C845.553 636.613 845.228 636.027 845.228 635.425C845.228 635.125 845.309 634.823 845.479 634.546C881.082 576.35 876.065 529.878 856.336 511.327C848.394 503.861 838.928 502.14 831.012 506.713C814.518 516.242 803.657 553.753 827.331 628.111C827.384 628.283 827.409 628.454 827.409 628.622C827.409 629.373 826.902 630.067 826.11 630.296C825.136 630.585 824.117 630.054 823.822 629.13C796.617 543.679 786.463 533.931 784.692 532.837C780.974 539.338 795.589 605.957 828.15 645.767C828.412 646.085 828.537 646.463 828.539 646.838C828.541 647.36 828.3 647.878 827.835 648.224C827.032 648.819 825.882 648.683 825.261 647.923C792.109 607.393 703.964 568.959 694.587 571.438C695.548 573.717 705.409 586.244 802.481 637.399C803.086 637.72 803.427 638.317 803.427 638.935C803.427 639.22 803.354 639.51 803.2 639.778C802.711 640.622 801.598 640.934 800.709 640.464C710.518 592.936 651.005 606.876 627.442 633.256C613.429 648.947 612.052 669.326 624.02 683.964C643.969 708.362 699.79 718.068 796.635 672.132C797.548 671.702 798.644 672.057 799.094 672.922C799.224 673.172 799.284 673.438 799.284 673.699C799.284 674.343 798.912 674.963 798.269 675.267C676.187 733.173 669.427 746.65 669.073 748.183C676.42 752.395 767.051 718.683 820.757 666.835C821.468 666.147 822.628 666.14 823.349 666.821C823.714 667.164 823.893 667.616 823.893 668.068C823.893 668.511 823.717 668.955 823.364 669.296C777.064 713.995 762.774 770.406 768.853 783.277ZM765.319 784.947C759.209 772.011 769.791 728.359 801.669 687.983C749.704 728.018 679.047 755.885 667.58 751.674C666.123 751.14 665.246 750.067 665.18 748.726C664.753 740.096 707.421 716.439 749.748 695.144C722.289 704.247 699.108 708.068 680.057 708.07C650.825 708.071 631.313 699.079 620.913 686.364C607.842 670.381 609.257 648.229 624.437 631.238C644.932 608.297 691.275 594.225 759.965 618.827C722.427 597.97 689.817 577.786 690.639 571.005C690.71 570.414 691.099 568.979 693.149 568.427C704.614 565.349 773.227 595.844 812.595 630.391C788.676 591.157 776.635 539.476 781.428 531.238C782.147 529.998 783.313 529.372 784.642 529.496C791.12 530.154 802.329 556.614 812.562 585.056C804.531 537.804 814.467 512.346 828.931 503.992C838.242 498.619 849.658 500.576 858.732 509.106C869.374 519.109 875.375 536.275 875.199 556.206C875.061 571.877 871.183 588.973 863.829 606.695C885.885 575.685 909.446 551.078 923.067 553.208C926.32 553.715 928.52 555.871 929.261 559.281C931.771 570.832 917.785 596.345 886.334 622.93C911.165 608.433 931.897 597.015 944.129 590.401C987.268 567.071 988.99 567.962 989.916 568.445C990.503 568.748 990.913 569.395 990.919 570.032C990.928 571.331 990.937 572.269 961.932 588.757C951.452 594.715 938.461 601.947 923.349 610.245C938.669 604.1 952.635 599.544 964.877 596.728C987.325 591.568 1003.81 592.307 1011.3 598.812C1015.96 602.859 1016.81 608.766 1013.69 615.446C1004.86 634.402 965.227 658.247 903.204 661.599C940.766 665.822 968.984 669.901 984.569 672.315C1034.36 680.026 1035.45 682.478 1035.86 683.402C1036.12 683.99 1036.01 684.825 1035.59 685.326C1034.72 686.372 1033.64 687.673 994.767 682.725C976.535 680.406 953.372 677.098 926.338 672.961C946.032 678.834 962.576 685.807 975.803 693.828C995.833 705.973 1007.31 720.361 1008.11 734.343C1008.94 748.915 998.321 761.006 980.381 765.894C949.945 774.188 906.706 760.647 869.451 715.231C885.272 744.722 897.687 771.496 893.554 776.32C893.149 776.791 891.983 777.82 889.891 777.197C880.006 774.258 847.921 727.113 836.803 686.134C833.389 728.979 811.304 781.007 802.569 785.288C801.305 785.907 800.028 785.815 799.061 785.032C795.348 782.025 798.867 763.818 805.268 740.716C791.83 771.211 779.886 788.534 771.391 788.991C771.287 788.997 771.179 789 771.061 789C769.495 789 766.951 788.401 765.319 784.947Z" fill="#509BF5"/>
</svg>
